<mxfile host="app.diagrams.net" modified="2024-03-02T01:57:34.387Z" agent="Mozilla/5.0 (Windows NT 10.0; Win64; x64; rv:123.0) Gecko/20100101 Firefox/123.0" etag="eNXFs3aRPe3wk7tcPF1Q" version="23.1.8" type="device">
  <diagram id="C5RBs43oDa-KdzZeNtuy" name="Page-1">
    <mxGraphModel dx="913" dy="1654" grid="1" gridSize="10" guides="1" tooltips="1" connect="1" arrows="1" fold="1" page="1" pageScale="1" pageWidth="827" pageHeight="1169" math="0" shadow="0">
      <root>
        <mxCell id="WIyWlLk6GJQsqaUBKTNV-0" />
        <mxCell id="WIyWlLk6GJQsqaUBKTNV-1" parent="WIyWlLk6GJQsqaUBKTNV-0" />
        <mxCell id="WIyWlLk6GJQsqaUBKTNV-6" value="TEM" style="rhombus;whiteSpace=wrap;html=1;shadow=0;fontFamily=Helvetica;fontSize=12;align=center;strokeWidth=1;spacing=6;spacingTop=-4;" parent="WIyWlLk6GJQsqaUBKTNV-1" vertex="1">
          <mxGeometry x="424" y="320" width="100" height="80" as="geometry" />
        </mxCell>
        <mxCell id="WIyWlLk6GJQsqaUBKTNV-10" value="APRESENTA" style="rhombus;whiteSpace=wrap;html=1;shadow=0;fontFamily=Helvetica;fontSize=12;align=center;strokeWidth=1;spacing=6;spacingTop=-4;" parent="WIyWlLk6GJQsqaUBKTNV-1" vertex="1">
          <mxGeometry x="210" y="160" width="100" height="80" as="geometry" />
        </mxCell>
        <mxCell id="PAUQMoeYh2cXPjYIo0hV-0" value="ARTIGO CIENTIFICO" style="rounded=0;whiteSpace=wrap;html=1;" vertex="1" parent="WIyWlLk6GJQsqaUBKTNV-1">
          <mxGeometry x="414" y="170" width="120" height="60" as="geometry" />
        </mxCell>
        <mxCell id="PAUQMoeYh2cXPjYIo0hV-1" value="TITULO" style="ellipse;whiteSpace=wrap;html=1;" vertex="1" parent="WIyWlLk6GJQsqaUBKTNV-1">
          <mxGeometry x="240" y="30" width="100" height="70" as="geometry" />
        </mxCell>
        <mxCell id="PAUQMoeYh2cXPjYIo0hV-2" value="" style="endArrow=none;html=1;rounded=0;exitX=0;exitY=0.5;exitDx=0;exitDy=0;" edge="1" parent="WIyWlLk6GJQsqaUBKTNV-1" target="PAUQMoeYh2cXPjYIo0hV-1">
          <mxGeometry width="50" height="50" relative="1" as="geometry">
            <mxPoint x="414" y="170" as="sourcePoint" />
            <mxPoint x="210" y="50" as="targetPoint" />
          </mxGeometry>
        </mxCell>
        <mxCell id="PAUQMoeYh2cXPjYIo0hV-3" value="&lt;u&gt;NUMERO REGISTO&lt;/u&gt;" style="ellipse;whiteSpace=wrap;html=1;" vertex="1" parent="WIyWlLk6GJQsqaUBKTNV-1">
          <mxGeometry x="424" y="-10" width="100" height="60" as="geometry" />
        </mxCell>
        <mxCell id="PAUQMoeYh2cXPjYIo0hV-5" value="CONFERENCIA" style="rounded=0;whiteSpace=wrap;html=1;" vertex="1" parent="WIyWlLk6GJQsqaUBKTNV-1">
          <mxGeometry x="10" y="170" width="120" height="60" as="geometry" />
        </mxCell>
        <mxCell id="PAUQMoeYh2cXPjYIo0hV-6" value="" style="endArrow=none;html=1;rounded=0;entryX=1;entryY=0.5;entryDx=0;entryDy=0;exitX=0;exitY=0.5;exitDx=0;exitDy=0;" edge="1" parent="WIyWlLk6GJQsqaUBKTNV-1" source="WIyWlLk6GJQsqaUBKTNV-10" target="PAUQMoeYh2cXPjYIo0hV-5">
          <mxGeometry width="50" height="50" relative="1" as="geometry">
            <mxPoint x="390" y="250" as="sourcePoint" />
            <mxPoint x="440" y="200" as="targetPoint" />
          </mxGeometry>
        </mxCell>
        <mxCell id="PAUQMoeYh2cXPjYIo0hV-7" value="" style="endArrow=none;html=1;rounded=0;entryX=0;entryY=0.5;entryDx=0;entryDy=0;exitX=1;exitY=0.5;exitDx=0;exitDy=0;" edge="1" parent="WIyWlLk6GJQsqaUBKTNV-1" source="WIyWlLk6GJQsqaUBKTNV-10" target="PAUQMoeYh2cXPjYIo0hV-0">
          <mxGeometry width="50" height="50" relative="1" as="geometry">
            <mxPoint x="390" y="250" as="sourcePoint" />
            <mxPoint x="440" y="200" as="targetPoint" />
          </mxGeometry>
        </mxCell>
        <mxCell id="PAUQMoeYh2cXPjYIo0hV-9" value="N" style="edgeLabel;html=1;align=center;verticalAlign=middle;resizable=0;points=[];" vertex="1" connectable="0" parent="PAUQMoeYh2cXPjYIo0hV-7">
          <mxGeometry x="-0.0962" y="-1" relative="1" as="geometry">
            <mxPoint y="-11" as="offset" />
          </mxGeometry>
        </mxCell>
        <mxCell id="PAUQMoeYh2cXPjYIo0hV-8" value="" style="endArrow=none;html=1;rounded=0;entryX=0.5;entryY=1;entryDx=0;entryDy=0;" edge="1" parent="WIyWlLk6GJQsqaUBKTNV-1" target="PAUQMoeYh2cXPjYIo0hV-3">
          <mxGeometry width="50" height="50" relative="1" as="geometry">
            <mxPoint x="474" y="170" as="sourcePoint" />
            <mxPoint x="480" y="60" as="targetPoint" />
          </mxGeometry>
        </mxCell>
        <mxCell id="PAUQMoeYh2cXPjYIo0hV-12" value="" style="endArrow=none;html=1;rounded=0;entryX=0.5;entryY=1;entryDx=0;entryDy=0;" edge="1" parent="WIyWlLk6GJQsqaUBKTNV-1" target="PAUQMoeYh2cXPjYIo0hV-0">
          <mxGeometry width="50" height="50" relative="1" as="geometry">
            <mxPoint x="474" y="320" as="sourcePoint" />
            <mxPoint x="524" y="270" as="targetPoint" />
          </mxGeometry>
        </mxCell>
        <mxCell id="PAUQMoeYh2cXPjYIo0hV-15" value="AUTOR" style="rounded=0;whiteSpace=wrap;html=1;" vertex="1" parent="WIyWlLk6GJQsqaUBKTNV-1">
          <mxGeometry x="414" y="460" width="120" height="60" as="geometry" />
        </mxCell>
        <mxCell id="PAUQMoeYh2cXPjYIo0hV-16" value="" style="endArrow=none;html=1;rounded=0;entryX=0.5;entryY=1;entryDx=0;entryDy=0;" edge="1" parent="WIyWlLk6GJQsqaUBKTNV-1" source="PAUQMoeYh2cXPjYIo0hV-15" target="WIyWlLk6GJQsqaUBKTNV-6">
          <mxGeometry width="50" height="50" relative="1" as="geometry">
            <mxPoint x="459" y="450" as="sourcePoint" />
            <mxPoint x="509" y="400" as="targetPoint" />
          </mxGeometry>
        </mxCell>
        <mxCell id="PAUQMoeYh2cXPjYIo0hV-23" value="N" style="edgeLabel;html=1;align=center;verticalAlign=middle;resizable=0;points=[];" vertex="1" connectable="0" parent="PAUQMoeYh2cXPjYIo0hV-16">
          <mxGeometry x="0.2" y="2" relative="1" as="geometry">
            <mxPoint x="-22" y="-154" as="offset" />
          </mxGeometry>
        </mxCell>
        <mxCell id="PAUQMoeYh2cXPjYIo0hV-17" value="NOME" style="ellipse;whiteSpace=wrap;html=1;" vertex="1" parent="WIyWlLk6GJQsqaUBKTNV-1">
          <mxGeometry x="580" y="370" width="100" height="60" as="geometry" />
        </mxCell>
        <mxCell id="PAUQMoeYh2cXPjYIo0hV-19" value="&lt;u&gt;EMAIL&lt;/u&gt;" style="ellipse;whiteSpace=wrap;html=1;" vertex="1" parent="WIyWlLk6GJQsqaUBKTNV-1">
          <mxGeometry x="600" y="555" width="100" height="60" as="geometry" />
        </mxCell>
        <mxCell id="PAUQMoeYh2cXPjYIo0hV-22" value="" style="endArrow=none;html=1;rounded=0;entryX=1;entryY=0;entryDx=0;entryDy=0;" edge="1" parent="WIyWlLk6GJQsqaUBKTNV-1" source="PAUQMoeYh2cXPjYIo0hV-17" target="PAUQMoeYh2cXPjYIo0hV-15">
          <mxGeometry width="50" height="50" relative="1" as="geometry">
            <mxPoint x="540" y="550" as="sourcePoint" />
            <mxPoint x="590" y="500" as="targetPoint" />
          </mxGeometry>
        </mxCell>
        <mxCell id="PAUQMoeYh2cXPjYIo0hV-26" value="" style="endArrow=none;html=1;rounded=0;entryX=0.583;entryY=0.983;entryDx=0;entryDy=0;entryPerimeter=0;exitX=0.6;exitY=0.113;exitDx=0;exitDy=0;exitPerimeter=0;" edge="1" parent="WIyWlLk6GJQsqaUBKTNV-1" source="WIyWlLk6GJQsqaUBKTNV-6" target="PAUQMoeYh2cXPjYIo0hV-0">
          <mxGeometry width="50" height="50" relative="1" as="geometry">
            <mxPoint x="490" y="337" as="sourcePoint" />
            <mxPoint x="490" y="270" as="targetPoint" />
          </mxGeometry>
        </mxCell>
        <mxCell id="PAUQMoeYh2cXPjYIo0hV-27" value="M" style="edgeLabel;html=1;align=center;verticalAlign=middle;resizable=0;points=[];" vertex="1" connectable="0" parent="WIyWlLk6GJQsqaUBKTNV-1">
          <mxGeometry x="460" y="280" as="geometry">
            <mxPoint x="-11" y="150" as="offset" />
          </mxGeometry>
        </mxCell>
        <mxCell id="PAUQMoeYh2cXPjYIo0hV-28" value="" style="endArrow=none;html=1;rounded=0;entryX=0.57;entryY=0.963;entryDx=0;entryDy=0;entryPerimeter=0;exitX=0.558;exitY=0;exitDx=0;exitDy=0;exitPerimeter=0;" edge="1" parent="WIyWlLk6GJQsqaUBKTNV-1" source="PAUQMoeYh2cXPjYIo0hV-15" target="WIyWlLk6GJQsqaUBKTNV-6">
          <mxGeometry width="50" height="50" relative="1" as="geometry">
            <mxPoint x="484" y="470" as="sourcePoint" />
            <mxPoint x="484" y="410" as="targetPoint" />
          </mxGeometry>
        </mxCell>
        <mxCell id="PAUQMoeYh2cXPjYIo0hV-30" value="" style="endArrow=none;html=1;rounded=0;exitX=0.01;exitY=0.25;exitDx=0;exitDy=0;exitPerimeter=0;entryX=1;entryY=1;entryDx=0;entryDy=0;" edge="1" parent="WIyWlLk6GJQsqaUBKTNV-1" source="PAUQMoeYh2cXPjYIo0hV-19" target="PAUQMoeYh2cXPjYIo0hV-15">
          <mxGeometry width="50" height="50" relative="1" as="geometry">
            <mxPoint x="490" y="570" as="sourcePoint" />
            <mxPoint x="540" y="520" as="targetPoint" />
          </mxGeometry>
        </mxCell>
        <mxCell id="PAUQMoeYh2cXPjYIo0hV-31" value="PERTENCE" style="rhombus;whiteSpace=wrap;html=1;shadow=0;fontFamily=Helvetica;fontSize=12;align=center;strokeWidth=1;spacing=6;spacingTop=-4;" vertex="1" parent="WIyWlLk6GJQsqaUBKTNV-1">
          <mxGeometry x="424" y="600" width="100" height="80" as="geometry" />
        </mxCell>
        <mxCell id="PAUQMoeYh2cXPjYIo0hV-33" value="" style="endArrow=none;html=1;rounded=0;entryX=0.5;entryY=1;entryDx=0;entryDy=0;exitX=0.5;exitY=0.063;exitDx=0;exitDy=0;exitPerimeter=0;" edge="1" parent="WIyWlLk6GJQsqaUBKTNV-1" source="PAUQMoeYh2cXPjYIo0hV-31" target="PAUQMoeYh2cXPjYIo0hV-15">
          <mxGeometry width="50" height="50" relative="1" as="geometry">
            <mxPoint x="470" y="585" as="sourcePoint" />
            <mxPoint x="520" y="535" as="targetPoint" />
          </mxGeometry>
        </mxCell>
        <mxCell id="PAUQMoeYh2cXPjYIo0hV-34" value="" style="endArrow=none;html=1;rounded=0;entryX=0.5;entryY=1;entryDx=0;entryDy=0;" edge="1" parent="WIyWlLk6GJQsqaUBKTNV-1" target="PAUQMoeYh2cXPjYIo0hV-31">
          <mxGeometry width="50" height="50" relative="1" as="geometry">
            <mxPoint x="474" y="730" as="sourcePoint" />
            <mxPoint x="524" y="680" as="targetPoint" />
          </mxGeometry>
        </mxCell>
        <mxCell id="PAUQMoeYh2cXPjYIo0hV-35" value="INSTITUICAO" style="rounded=0;whiteSpace=wrap;html=1;" vertex="1" parent="WIyWlLk6GJQsqaUBKTNV-1">
          <mxGeometry x="414" y="730" width="120" height="60" as="geometry" />
        </mxCell>
        <mxCell id="PAUQMoeYh2cXPjYIo0hV-36" value="&lt;u&gt;NOME&lt;/u&gt;" style="ellipse;whiteSpace=wrap;html=1;" vertex="1" parent="WIyWlLk6GJQsqaUBKTNV-1">
          <mxGeometry x="580" y="640" width="100" height="60" as="geometry" />
        </mxCell>
        <mxCell id="PAUQMoeYh2cXPjYIo0hV-37" value="" style="endArrow=none;html=1;rounded=0;entryX=1;entryY=0;entryDx=0;entryDy=0;" edge="1" parent="WIyWlLk6GJQsqaUBKTNV-1">
          <mxGeometry width="50" height="50" relative="1" as="geometry">
            <mxPoint x="595" y="692" as="sourcePoint" />
            <mxPoint x="534" y="730" as="targetPoint" />
          </mxGeometry>
        </mxCell>
        <mxCell id="PAUQMoeYh2cXPjYIo0hV-38" value="" style="endArrow=none;html=1;rounded=0;exitX=1;exitY=1;exitDx=0;exitDy=0;" edge="1" parent="WIyWlLk6GJQsqaUBKTNV-1" source="PAUQMoeYh2cXPjYIo0hV-35">
          <mxGeometry width="50" height="50" relative="1" as="geometry">
            <mxPoint x="551" y="820" as="sourcePoint" />
            <mxPoint x="590" y="850" as="targetPoint" />
          </mxGeometry>
        </mxCell>
        <mxCell id="PAUQMoeYh2cXPjYIo0hV-40" value="ENDERECO" style="ellipse;whiteSpace=wrap;html=1;" vertex="1" parent="WIyWlLk6GJQsqaUBKTNV-1">
          <mxGeometry x="590" y="830" width="100" height="60" as="geometry" />
        </mxCell>
        <mxCell id="PAUQMoeYh2cXPjYIo0hV-41" value="" style="endArrow=none;html=1;rounded=0;entryX=0.5;entryY=1;entryDx=0;entryDy=0;" edge="1" parent="WIyWlLk6GJQsqaUBKTNV-1" target="PAUQMoeYh2cXPjYIo0hV-5">
          <mxGeometry width="50" height="50" relative="1" as="geometry">
            <mxPoint x="70" y="350" as="sourcePoint" />
            <mxPoint x="90" y="290" as="targetPoint" />
          </mxGeometry>
        </mxCell>
        <mxCell id="PAUQMoeYh2cXPjYIo0hV-44" value="1" style="edgeLabel;html=1;align=center;verticalAlign=middle;resizable=0;points=[];" vertex="1" connectable="0" parent="PAUQMoeYh2cXPjYIo0hV-41">
          <mxGeometry x="0.2667" y="1" relative="1" as="geometry">
            <mxPoint x="-19" y="-34" as="offset" />
          </mxGeometry>
        </mxCell>
        <mxCell id="PAUQMoeYh2cXPjYIo0hV-42" value="PARTICIPANTES" style="rounded=0;whiteSpace=wrap;html=1;" vertex="1" parent="WIyWlLk6GJQsqaUBKTNV-1">
          <mxGeometry x="190" y="360" width="120" height="60" as="geometry" />
        </mxCell>
        <mxCell id="PAUQMoeYh2cXPjYIo0hV-43" value="TEM" style="rhombus;whiteSpace=wrap;html=1;shadow=0;fontFamily=Helvetica;fontSize=12;align=center;strokeWidth=1;spacing=6;spacingTop=-4;" vertex="1" parent="WIyWlLk6GJQsqaUBKTNV-1">
          <mxGeometry x="20" y="350" width="100" height="80" as="geometry" />
        </mxCell>
        <mxCell id="PAUQMoeYh2cXPjYIo0hV-48" value="NOME" style="ellipse;whiteSpace=wrap;html=1;" vertex="1" parent="WIyWlLk6GJQsqaUBKTNV-1">
          <mxGeometry x="130" y="270" width="80" height="50" as="geometry" />
        </mxCell>
        <mxCell id="PAUQMoeYh2cXPjYIo0hV-49" value="&lt;u&gt;EMAIL&lt;/u&gt;" style="ellipse;whiteSpace=wrap;html=1;" vertex="1" parent="WIyWlLk6GJQsqaUBKTNV-1">
          <mxGeometry x="300" y="270" width="80" height="50" as="geometry" />
        </mxCell>
        <mxCell id="PAUQMoeYh2cXPjYIo0hV-50" value="" style="endArrow=none;html=1;rounded=0;entryX=1;entryY=0.5;entryDx=0;entryDy=0;exitX=0;exitY=0.5;exitDx=0;exitDy=0;" edge="1" parent="WIyWlLk6GJQsqaUBKTNV-1" source="PAUQMoeYh2cXPjYIo0hV-42" target="PAUQMoeYh2cXPjYIo0hV-43">
          <mxGeometry width="50" height="50" relative="1" as="geometry">
            <mxPoint x="390" y="510" as="sourcePoint" />
            <mxPoint x="440" y="460" as="targetPoint" />
          </mxGeometry>
        </mxCell>
        <mxCell id="PAUQMoeYh2cXPjYIo0hV-53" value="N&lt;div&gt;&lt;br/&gt;&lt;/div&gt;" style="edgeLabel;html=1;align=center;verticalAlign=middle;resizable=0;points=[];" vertex="1" connectable="0" parent="PAUQMoeYh2cXPjYIo0hV-50">
          <mxGeometry relative="1" as="geometry">
            <mxPoint x="25" y="20" as="offset" />
          </mxGeometry>
        </mxCell>
        <mxCell id="PAUQMoeYh2cXPjYIo0hV-51" value="" style="endArrow=none;html=1;rounded=0;entryX=0.5;entryY=1;entryDx=0;entryDy=0;" edge="1" parent="WIyWlLk6GJQsqaUBKTNV-1" target="PAUQMoeYh2cXPjYIo0hV-48">
          <mxGeometry width="50" height="50" relative="1" as="geometry">
            <mxPoint x="190" y="360" as="sourcePoint" />
            <mxPoint x="240" y="310" as="targetPoint" />
          </mxGeometry>
        </mxCell>
        <mxCell id="PAUQMoeYh2cXPjYIo0hV-52" value="" style="endArrow=none;html=1;rounded=0;entryX=0.413;entryY=1.06;entryDx=0;entryDy=0;entryPerimeter=0;" edge="1" parent="WIyWlLk6GJQsqaUBKTNV-1" target="PAUQMoeYh2cXPjYIo0hV-49">
          <mxGeometry width="50" height="50" relative="1" as="geometry">
            <mxPoint x="310" y="360" as="sourcePoint" />
            <mxPoint x="360" y="310" as="targetPoint" />
          </mxGeometry>
        </mxCell>
        <mxCell id="PAUQMoeYh2cXPjYIo0hV-54" value="MORADA" style="ellipse;whiteSpace=wrap;html=1;" vertex="1" parent="WIyWlLk6GJQsqaUBKTNV-1">
          <mxGeometry x="305" y="505" width="70" height="50" as="geometry" />
        </mxCell>
        <mxCell id="PAUQMoeYh2cXPjYIo0hV-55" value="" style="endArrow=none;html=1;rounded=0;entryX=1;entryY=1;entryDx=0;entryDy=0;exitX=0.5;exitY=0;exitDx=0;exitDy=0;" edge="1" parent="WIyWlLk6GJQsqaUBKTNV-1" source="PAUQMoeYh2cXPjYIo0hV-54" target="PAUQMoeYh2cXPjYIo0hV-42">
          <mxGeometry width="50" height="50" relative="1" as="geometry">
            <mxPoint x="390" y="660" as="sourcePoint" />
            <mxPoint x="440" y="610" as="targetPoint" />
          </mxGeometry>
        </mxCell>
        <mxCell id="PAUQMoeYh2cXPjYIo0hV-56" value="DATA INSCRICAO" style="ellipse;whiteSpace=wrap;html=1;" vertex="1" parent="WIyWlLk6GJQsqaUBKTNV-1">
          <mxGeometry x="80" y="500" width="90" height="50" as="geometry" />
        </mxCell>
        <mxCell id="PAUQMoeYh2cXPjYIo0hV-57" value="" style="endArrow=none;html=1;rounded=0;entryX=1;entryY=0;entryDx=0;entryDy=0;exitX=0;exitY=1;exitDx=0;exitDy=0;" edge="1" parent="WIyWlLk6GJQsqaUBKTNV-1" source="PAUQMoeYh2cXPjYIo0hV-42" target="PAUQMoeYh2cXPjYIo0hV-56">
          <mxGeometry width="50" height="50" relative="1" as="geometry">
            <mxPoint x="210" y="572.5" as="sourcePoint" />
            <mxPoint x="180" y="487.5" as="targetPoint" />
          </mxGeometry>
        </mxCell>
        <mxCell id="PAUQMoeYh2cXPjYIo0hV-60" value="" style="endArrow=none;html=1;rounded=0;entryX=0.417;entryY=1;entryDx=0;entryDy=0;entryPerimeter=0;" edge="1" parent="WIyWlLk6GJQsqaUBKTNV-1" source="PAUQMoeYh2cXPjYIo0hV-59">
          <mxGeometry width="50" height="50" relative="1" as="geometry">
            <mxPoint x="240.82" y="630" as="sourcePoint" />
            <mxPoint x="245.85999999999996" y="420" as="targetPoint" />
          </mxGeometry>
        </mxCell>
        <mxCell id="PAUQMoeYh2cXPjYIo0hV-61" value="" style="endArrow=none;html=1;rounded=0;entryX=1;entryY=0.5;entryDx=0;entryDy=0;" edge="1" parent="WIyWlLk6GJQsqaUBKTNV-1" target="PAUQMoeYh2cXPjYIo0hV-59">
          <mxGeometry width="50" height="50" relative="1" as="geometry">
            <mxPoint x="180" y="690" as="sourcePoint" />
            <mxPoint x="230" y="640" as="targetPoint" />
          </mxGeometry>
        </mxCell>
        <mxCell id="PAUQMoeYh2cXPjYIo0hV-59" value="É&lt;div&gt;&lt;br/&gt;&lt;/div&gt;" style="triangle;whiteSpace=wrap;html=1;direction=south;" vertex="1" parent="WIyWlLk6GJQsqaUBKTNV-1">
          <mxGeometry x="210" y="585" width="66.67" height="50" as="geometry" />
        </mxCell>
        <mxCell id="PAUQMoeYh2cXPjYIo0hV-63" value="" style="endArrow=none;html=1;rounded=0;entryX=1;entryY=0.5;entryDx=0;entryDy=0;" edge="1" parent="WIyWlLk6GJQsqaUBKTNV-1" target="PAUQMoeYh2cXPjYIo0hV-59">
          <mxGeometry width="50" height="50" relative="1" as="geometry">
            <mxPoint x="300" y="700" as="sourcePoint" />
            <mxPoint x="260" y="640" as="targetPoint" />
          </mxGeometry>
        </mxCell>
        <mxCell id="PAUQMoeYh2cXPjYIo0hV-64" value="disjoint" style="text;html=1;align=center;verticalAlign=middle;resizable=0;points=[];autosize=1;strokeColor=none;fillColor=none;" vertex="1" parent="WIyWlLk6GJQsqaUBKTNV-1">
          <mxGeometry x="260" y="600" width="60" height="30" as="geometry" />
        </mxCell>
        <mxCell id="PAUQMoeYh2cXPjYIo0hV-66" value="ESTUDANTE" style="rounded=0;whiteSpace=wrap;html=1;" vertex="1" parent="WIyWlLk6GJQsqaUBKTNV-1">
          <mxGeometry x="100" y="690" width="110" height="50" as="geometry" />
        </mxCell>
        <mxCell id="PAUQMoeYh2cXPjYIo0hV-67" value="NAO ESTUDANTE" style="rounded=0;whiteSpace=wrap;html=1;" vertex="1" parent="WIyWlLk6GJQsqaUBKTNV-1">
          <mxGeometry x="250" y="700" width="110" height="50" as="geometry" />
        </mxCell>
        <mxCell id="PAUQMoeYh2cXPjYIo0hV-68" value="REFERENCIA TRANSACAO BANCARIA" style="ellipse;whiteSpace=wrap;html=1;" vertex="1" parent="WIyWlLk6GJQsqaUBKTNV-1">
          <mxGeometry x="260" y="800" width="100" height="70" as="geometry" />
        </mxCell>
        <mxCell id="PAUQMoeYh2cXPjYIo0hV-73" value="" style="endArrow=none;html=1;rounded=0;entryX=0.5;entryY=1;entryDx=0;entryDy=0;exitX=0.5;exitY=0;exitDx=0;exitDy=0;" edge="1" parent="WIyWlLk6GJQsqaUBKTNV-1" source="PAUQMoeYh2cXPjYIo0hV-68">
          <mxGeometry width="50" height="50" relative="1" as="geometry">
            <mxPoint x="305" y="820" as="sourcePoint" />
            <mxPoint x="310" y="750" as="targetPoint" />
          </mxGeometry>
        </mxCell>
        <mxCell id="PAUQMoeYh2cXPjYIo0hV-74" value="TEM" style="rhombus;whiteSpace=wrap;html=1;shadow=0;fontFamily=Helvetica;fontSize=12;align=center;strokeWidth=1;spacing=6;spacingTop=-4;" vertex="1" parent="WIyWlLk6GJQsqaUBKTNV-1">
          <mxGeometry x="110" y="930" width="100" height="80" as="geometry" />
        </mxCell>
        <mxCell id="PAUQMoeYh2cXPjYIo0hV-75" value="" style="endArrow=none;html=1;rounded=0;entryX=0.5;entryY=1;entryDx=0;entryDy=0;exitX=0.5;exitY=0;exitDx=0;exitDy=0;" edge="1" parent="WIyWlLk6GJQsqaUBKTNV-1" source="PAUQMoeYh2cXPjYIo0hV-74" target="PAUQMoeYh2cXPjYIo0hV-66">
          <mxGeometry width="50" height="50" relative="1" as="geometry">
            <mxPoint x="160" y="890" as="sourcePoint" />
            <mxPoint x="210" y="840" as="targetPoint" />
          </mxGeometry>
        </mxCell>
        <mxCell id="PAUQMoeYh2cXPjYIo0hV-76" value="COMPROVATIVO" style="rounded=0;whiteSpace=wrap;html=1;" vertex="1" parent="WIyWlLk6GJQsqaUBKTNV-1">
          <mxGeometry x="255" y="945" width="120" height="50" as="geometry" />
        </mxCell>
        <mxCell id="PAUQMoeYh2cXPjYIo0hV-77" value="" style="endArrow=none;html=1;rounded=0;entryX=0;entryY=0.5;entryDx=0;entryDy=0;" edge="1" parent="WIyWlLk6GJQsqaUBKTNV-1" target="PAUQMoeYh2cXPjYIo0hV-76">
          <mxGeometry width="50" height="50" relative="1" as="geometry">
            <mxPoint x="210" y="970" as="sourcePoint" />
            <mxPoint x="260" y="920" as="targetPoint" />
          </mxGeometry>
        </mxCell>
        <mxCell id="PAUQMoeYh2cXPjYIo0hV-85" value="1" style="edgeLabel;html=1;align=center;verticalAlign=middle;resizable=0;points=[];" vertex="1" connectable="0" parent="PAUQMoeYh2cXPjYIo0hV-77">
          <mxGeometry x="0.1556" y="-3" relative="1" as="geometry">
            <mxPoint x="7" y="-13" as="offset" />
          </mxGeometry>
        </mxCell>
        <mxCell id="PAUQMoeYh2cXPjYIo0hV-78" value="EMITE" style="rhombus;whiteSpace=wrap;html=1;shadow=0;fontFamily=Helvetica;fontSize=12;align=center;strokeWidth=1;spacing=6;spacingTop=-4;fillStyle=zigzag-line;rounded=0;perimeterSpacing=1;gradientColor=none;" vertex="1" parent="WIyWlLk6GJQsqaUBKTNV-1">
          <mxGeometry x="424" y="930" width="100" height="80" as="geometry" />
        </mxCell>
        <mxCell id="PAUQMoeYh2cXPjYIo0hV-79" value="" style="endArrow=none;html=1;rounded=0;entryX=0.5;entryY=1;entryDx=0;entryDy=0;exitX=0.5;exitY=0;exitDx=0;exitDy=0;" edge="1" parent="WIyWlLk6GJQsqaUBKTNV-1" source="PAUQMoeYh2cXPjYIo0hV-78" target="PAUQMoeYh2cXPjYIo0hV-35">
          <mxGeometry width="50" height="50" relative="1" as="geometry">
            <mxPoint x="390" y="880" as="sourcePoint" />
            <mxPoint x="440" y="830" as="targetPoint" />
          </mxGeometry>
        </mxCell>
        <mxCell id="PAUQMoeYh2cXPjYIo0hV-81" value="1" style="edgeLabel;html=1;align=center;verticalAlign=middle;resizable=0;points=[];" vertex="1" connectable="0" parent="PAUQMoeYh2cXPjYIo0hV-79">
          <mxGeometry x="0.8286" y="3" relative="1" as="geometry">
            <mxPoint x="-11" y="8" as="offset" />
          </mxGeometry>
        </mxCell>
        <mxCell id="PAUQMoeYh2cXPjYIo0hV-80" value="" style="endArrow=none;html=1;rounded=0;entryX=0;entryY=0.5;entryDx=0;entryDy=0;" edge="1" parent="WIyWlLk6GJQsqaUBKTNV-1" target="PAUQMoeYh2cXPjYIo0hV-78">
          <mxGeometry width="50" height="50" relative="1" as="geometry">
            <mxPoint x="374" y="970" as="sourcePoint" />
            <mxPoint x="424" y="920" as="targetPoint" />
          </mxGeometry>
        </mxCell>
        <mxCell id="PAUQMoeYh2cXPjYIo0hV-82" value="N" style="edgeLabel;html=1;align=center;verticalAlign=middle;resizable=0;points=[];" vertex="1" connectable="0" parent="PAUQMoeYh2cXPjYIo0hV-80">
          <mxGeometry x="0.44" relative="1" as="geometry">
            <mxPoint x="-19" y="-10" as="offset" />
          </mxGeometry>
        </mxCell>
        <mxCell id="PAUQMoeYh2cXPjYIo0hV-83" value="&lt;u&gt;LOCALIZACAO&lt;br&gt;ELETRONICA&lt;/u&gt;" style="ellipse;whiteSpace=wrap;html=1;" vertex="1" parent="WIyWlLk6GJQsqaUBKTNV-1">
          <mxGeometry x="257.5" y="1080" width="115" height="70" as="geometry" />
        </mxCell>
        <mxCell id="PAUQMoeYh2cXPjYIo0hV-84" value="" style="endArrow=none;html=1;rounded=0;entryX=0.5;entryY=1;entryDx=0;entryDy=0;" edge="1" parent="WIyWlLk6GJQsqaUBKTNV-1" target="PAUQMoeYh2cXPjYIo0hV-76">
          <mxGeometry width="50" height="50" relative="1" as="geometry">
            <mxPoint x="315" y="1080" as="sourcePoint" />
            <mxPoint x="365" y="1030" as="targetPoint" />
          </mxGeometry>
        </mxCell>
        <mxCell id="PAUQMoeYh2cXPjYIo0hV-86" value="" style="endArrow=none;html=1;rounded=0;entryX=0.95;entryY=0.425;entryDx=0;entryDy=0;entryPerimeter=0;exitX=-0.025;exitY=0.4;exitDx=0;exitDy=0;exitPerimeter=0;" edge="1" parent="WIyWlLk6GJQsqaUBKTNV-1" source="PAUQMoeYh2cXPjYIo0hV-42" target="PAUQMoeYh2cXPjYIo0hV-43">
          <mxGeometry width="50" height="50" relative="1" as="geometry">
            <mxPoint x="390" y="350" as="sourcePoint" />
            <mxPoint x="440" y="300" as="targetPoint" />
          </mxGeometry>
        </mxCell>
        <mxCell id="PAUQMoeYh2cXPjYIo0hV-88" value="" style="rhombus;whiteSpace=wrap;html=1;shadow=0;fontFamily=Helvetica;fontSize=12;align=center;strokeWidth=1;spacing=6;spacingTop=-4;fillColor=none;" vertex="1" parent="WIyWlLk6GJQsqaUBKTNV-1">
          <mxGeometry x="419" y="923" width="110" height="94" as="geometry" />
        </mxCell>
        <mxCell id="PAUQMoeYh2cXPjYIo0hV-89" value="" style="rounded=0;whiteSpace=wrap;html=1;fillColor=none;" vertex="1" parent="WIyWlLk6GJQsqaUBKTNV-1">
          <mxGeometry x="250" y="940" width="130" height="60" as="geometry" />
        </mxCell>
      </root>
    </mxGraphModel>
  </diagram>
</mxfile>
